<svg xmlns="http://www.w3.org/2000/svg" width="29.187" height="29.19" viewBox="0 0 29.187 29.19">
  <metadata><?xpacket begin="﻿" id="W5M0MpCehiHzreSzNTczkc9d"?>
<x:xmpmeta xmlns:x="adobe:ns:meta/" x:xmptk="Adobe XMP Core 5.6-c140 79.160451, 2017/05/06-01:08:21        ">
   <rdf:RDF xmlns:rdf="http://www.w3.org/1999/02/22-rdf-syntax-ns#">
      <rdf:Description rdf:about=""/>
   </rdf:RDF>
</x:xmpmeta>
                                                                                                    
                                                                                                    
                                                                                                    
                                                                                                    
                                                                                                    
                                                                                                    
                                                                                                    
                                                                                                    
                                                                                                    
                                                                                                    
                                                                                                    
                                                                                                    
                                                                                                    
                                                                                                    
                                                                                                    
                                                                                                    
                                                                                                    
                                                                                                    
                                                                                                    
                                                                                                    
                           
<?xpacket end="w"?></metadata>
<defs>
    <style>
      .cls-1 {
        fill-rule: evenodd;
        opacity: 0.5;
      }
    </style>
  </defs>
  <path id="Forma_1" data-name="Forma 1" class="cls-1" d="M795.817,1334.03a14.59,14.59,0,1,0-14.586-14.59A14.6,14.6,0,0,0,795.817,1334.03Zm0-27.12a12.53,12.53,0,1,1-12.527,12.53A12.552,12.552,0,0,1,795.817,1306.91Zm-3.364,19.81a1.008,1.008,0,0,0,.728.3,1.051,1.051,0,0,0,.728-0.3l6.628-6.63a1.024,1.024,0,0,0,0-1.45l-6.628-6.63a1.031,1.031,0,0,0-1.456,1.46l5.9,5.9-5.9,5.9A1.022,1.022,0,0,0,792.453,1326.72Z" transform="translate(-781.219 -1304.84)"/>
</svg>
