<svg xmlns="http://www.w3.org/2000/svg" width="92.688" height="76.031" viewBox="0 0 92.688 76.031">
  <metadata><?xpacket begin="﻿" id="W5M0MpCehiHzreSzNTczkc9d"?>
<x:xmpmeta xmlns:x="adobe:ns:meta/" x:xmptk="Adobe XMP Core 5.6-c140 79.160451, 2017/05/06-01:08:21        ">
   <rdf:RDF xmlns:rdf="http://www.w3.org/1999/02/22-rdf-syntax-ns#">
      <rdf:Description rdf:about=""/>
   </rdf:RDF>
</x:xmpmeta>

<?xpacket end="w"?></metadata>
<defs>
    <style>
      .cls-1 {
        fill: #fff;
        fill-rule: evenodd;
      }
    </style>
  </defs>
  <path class="cls-1" d="M628.4,821.387c1.089-.711,2.193,0,2.919,1.1,0.363,0.363,0,1.089,0,1.816l2.544,8.386-5.1-7.294a5.119,5.119,0,0,1-1.468-1.092,2.03,2.03,0,0,1,1.105-2.92h0ZM597.752,783.5h0a7.318,7.318,0,0,0-2.545-10.2,7.819,7.819,0,0,0-10.591,2.9l-11.669,20.056a8.254,8.254,0,0,1,.741,9.457l-2.935,4.753a8.347,8.347,0,0,1-11.291,3.271c-4.011-2.545-5.478-7.66-3.3-11.291l2.923-5.1a8.162,8.162,0,0,1,8.035-4.012l11.669-20.763a14.544,14.544,0,0,1,25.168,14.573L596.3,799.9l-5.842,10.579-7.66,12.743a8.129,8.129,0,0,0,2.923,10.565,7.309,7.309,0,0,0,10.216-2.907l2.179-3.283L594.1,825.4a5.264,5.264,0,0,1-1.83-6.556l24.82-42.635a4.7,4.7,0,0,1,6.568-1.815l21.882,12.395a5.6,5.6,0,0,1,1.819,6.916l-9.491,16.029a16,16,0,1,1-16.04,27.683h0a5.576,5.576,0,0,1-5.842.363l-12.032-6.9-1.831,3.27a14.451,14.451,0,0,1-25.168-14.21l7.3-12.746,6.2-10.577ZM639.7,829.044h0c2.92-5.464,1.1-12.743-4.374-15.662-5.479-3.271-12.773-1.47-15.7,4.008a11.682,11.682,0,0,0,4.027,16.029,12.28,12.28,0,0,0,16.043-4.375h0Z" transform="translate(-555.156 -765.469)"/>
</svg>
