<svg xmlns="http://www.w3.org/2000/svg" width="20.563" height="20.78" viewBox="0 0 20.563 20.78">
  <metadata><?xpacket begin="﻿" id="W5M0MpCehiHzreSzNTczkc9d"?>
<x:xmpmeta xmlns:x="adobe:ns:meta/" x:xmptk="Adobe XMP Core 5.6-c140 79.160451, 2017/05/06-01:08:21        ">
   <rdf:RDF xmlns:rdf="http://www.w3.org/1999/02/22-rdf-syntax-ns#">
      <rdf:Description rdf:about=""/>
   </rdf:RDF>
</x:xmpmeta>
<?xpacket end="w"?></metadata>
<defs>
    <style>
      .cls-1 {
        fill-rule: evenodd;
      }
    </style>
  </defs>
  <path class="cls-1" d="M219.87,2729.81V2740h4.8v-13.86h-4.8v3.67Zm2.4-10.61a2.43,2.43,0,1,0,2.4,2.43A2.416,2.416,0,0,0,222.269,2719.2Zm18.054,11.19c-0.325-2.61-1.511-4.25-5-4.25-2.071,0-3.462.77-4.031,1.87h-0.059v-1.87h-3.821V2740H231.4v-6.87c0-1.82.338-3.57,2.554-3.57,2.183,0,2.359,2.07,2.359,3.68V2740h4.112v-7.62h0A16.3,16.3,0,0,0,240.323,2730.39Z" transform="translate(-219.875 -2719.22)"/>
</svg>
