<svg xmlns="http://www.w3.org/2000/svg" width="16.438" height="20.81" viewBox="0 0 16.438 20.81">
  <metadata><?xpacket begin="﻿" id="W5M0MpCehiHzreSzNTczkc9d"?>
<x:xmpmeta xmlns:x="adobe:ns:meta/" x:xmptk="Adobe XMP Core 5.6-c140 79.160451, 2017/05/06-01:08:21        ">
   <rdf:RDF xmlns:rdf="http://www.w3.org/1999/02/22-rdf-syntax-ns#">
      <rdf:Description rdf:about=""/>
   </rdf:RDF>
</x:xmpmeta>
<?xpacket end="w"?></metadata>
<defs>
    <style>
      .cls-1 {
        fill-rule: evenodd;
      }
    </style>
  </defs>
  <path class="cls-1" d="M193.277,2719.91c-5.8,0-8.719,4.07-8.719,7.46a6.785,6.785,0,0,0,.227,1.79,3.914,3.914,0,0,0,2.27,2.77,0.416,0.416,0,0,0,.612-0.29c0.056-.21.19-0.74,0.25-0.96a0.579,0.579,0,0,0-.176-0.67,3.145,3.145,0,0,1-.663-1.23,4.164,4.164,0,0,1-.144-1.11,5.72,5.72,0,0,1,6.009-5.72c3.276,0,5.077,1.96,5.077,4.57a10.61,10.61,0,0,1-.225,2.21c-0.51,2.39-1.849,4.14-3.642,4.14a1.86,1.86,0,0,1-1.928-2.3c0.176-.72.428-1.46,0.645-2.17a7.68,7.68,0,0,0,.433-2.06,1.617,1.617,0,0,0-1.645-1.8c-1.306,0-2.355,1.33-2.355,3.09a4.929,4.929,0,0,0,.083.9,4.063,4.063,0,0,0,.307,1l-1.569,6.5a13.121,13.121,0,0,0-.037,4.54,0.164,0.164,0,0,0,.291.07,12.6,12.6,0,0,0,2.2-3.91c0.149-.53.858-3.28,0.858-3.28a3.524,3.524,0,0,0,2.981,1.49c3.194,0,5.552-2.32,6.317-5.72a11.166,11.166,0,0,0,.266-2.47C201,2723.21,197.937,2719.91,193.277,2719.91Z" transform="translate(-184.562 -2719.91)"/>
</svg>
