<svg xmlns="http://www.w3.org/2000/svg" width="20.562" height="16.62" viewBox="0 0 20.562 16.62">
  <metadata><?xpacket begin="﻿" id="W5M0MpCehiHzreSzNTczkc9d"?>
<x:xmpmeta xmlns:x="adobe:ns:meta/" x:xmptk="Adobe XMP Core 5.6-c140 79.160451, 2017/05/06-01:08:21        ">
   <rdf:RDF xmlns:rdf="http://www.w3.org/1999/02/22-rdf-syntax-ns#">
      <rdf:Description rdf:about=""/>
   </rdf:RDF>
</x:xmpmeta>
<?xpacket end="w"?></metadata>
<defs>
    <style>
      .cls-1 {
        fill-rule: evenodd;
      }
    </style>
  </defs>
  <path class="cls-1" d="M166.561,2723.97a8.869,8.869,0,0,1-2.422.66,4.233,4.233,0,0,0,1.855-2.33,8.532,8.532,0,0,1-2.679,1.02,4.217,4.217,0,0,0-7.187,3.83,11.977,11.977,0,0,1-8.693-4.39,4.2,4.2,0,0,0,1.305,5.61,4.246,4.246,0,0,1-1.91-.52v0.05a4.131,4.131,0,0,0,.288,1.52,4.232,4.232,0,0,0,3.1,2.6,4.519,4.519,0,0,1-1.113.14,4.156,4.156,0,0,1-.793-0.07,4.209,4.209,0,0,0,3.94,2.91,8.518,8.518,0,0,1-6.246,1.74,12,12,0,0,0,6.466,1.89,12.017,12.017,0,0,0,12-11.95c0-.18,0-0.36-0.011-0.54A8.523,8.523,0,0,0,166.561,2723.97Z" transform="translate(-146 -2722)"/>
</svg>
