<svg xmlns="http://www.w3.org/2000/svg" xmlns:xlink="http://www.w3.org/1999/xlink" width="81.376" height="92.562" viewBox="0 0 81.376 92.562">
  <metadata><?xpacket begin="﻿" id="W5M0MpCehiHzreSzNTczkc9d"?>
<x:xmpmeta xmlns:x="adobe:ns:meta/" x:xmptk="Adobe XMP Core 5.6-c140 79.160451, 2017/05/06-01:08:21        ">
   <rdf:RDF xmlns:rdf="http://www.w3.org/1999/02/22-rdf-syntax-ns#">
      <rdf:Description rdf:about=""/>
   </rdf:RDF>
</x:xmpmeta>

<?xpacket end="w"?></metadata>
<defs>
    <style>
      .cls-1 {
        fill: #fa6900;
        fill-rule: evenodd;
        filter: url(#filter);
      }
    </style>
    <filter id="filter" x="896.812" y="757.219" width="81.376" height="92.562" filterUnits="userSpaceOnUse">
      <feFlood result="flood" flood-color="#69d2e7"/>
      <feComposite result="composite" operator="in" in2="SourceGraphic"/>
      <feBlend result="blend" in2="SourceGraphic"/>
    </filter>
  </defs>
  <path class="cls-1" d="M937.31,795.115a8.486,8.486,0,0,0-8.4,8.386,8.738,8.738,0,0,0,8.4,8.369A8.48,8.48,0,0,0,945.7,803.5a8.255,8.255,0,0,0-8.386-8.386h0Zm35.747,33.525h0a9.266,9.266,0,0,1-3.663,2.541,16.74,16.74,0,0,1-6.19,1.089,34.835,34.835,0,0,1-8.4-1.089c0.378-1.815,1.1-3.267,1.468-5.1a58.936,58.936,0,0,0,2.2-12.017,83.971,83.971,0,0,0,8.02-8.02,5.111,5.111,0,0,0,1.089,1.467,36.491,36.491,0,0,1,5.116,8.75,23.393,23.393,0,0,1,1.815,7.279,7.679,7.679,0,0,1-1.452,5.1h0Zm-21.534,1.452h0c-1.818-.363-3.271-1.089-5.086-1.452-1.833-.726-3.664-1.819-5.479-2.56,2.92-1.815,6.19-3.267,9.11-5.449,1.455-1.1,2.922-2.193,4.389-3.282-0.741,4.723-1.467,9.109-2.934,12.743h0Zm-1.455,4.375h0a33.468,33.468,0,0,1-6.19,8.746A8.883,8.883,0,0,1,940.6,845.4a5.062,5.062,0,0,1-3.285,1.089,5.866,5.866,0,0,1-3.3-1.089c-1.8-.727-3.634-2.545-5.449-4.738a34.293,34.293,0,0,1-4.027-7.279c1.831-.73,3.286-1.108,5.1-1.834a71.842,71.842,0,0,0,7.673-3.63c2.544,1.452,5.463,2.541,7.657,3.63a32.09,32.09,0,0,0,5.479,1.834,1.3,1.3,0,0,0-.378,1.089h0Zm-28.088-9.476h0c-0.726-2.178-1.089-5.1-1.818-8,1.455,1.089,2.922,2.178,4.374,3.267,2.923,2.2,6.205,4.012,9.113,5.827-1.818.741-3.649,1.47-5.086,2.182-1.833.741-3.663,1.1-5.116,1.83a20.772,20.772,0,0,1-1.467-5.1h0Zm-10.216,6.931h0a14.75,14.75,0,0,1-6.191-1.089,6.462,6.462,0,0,1-4.011-2.571,7.68,7.68,0,0,1-1.467-5.086,23.5,23.5,0,0,1,1.833-7.294,45.588,45.588,0,0,1,6.568-9.839v0.378c2.541,2.178,5.1,5.1,8.02,7.642a75.267,75.267,0,0,0,3.646,16.77,41.966,41.966,0,0,1-8.4,1.089h0Zm4.389-22.96h0a26.593,26.593,0,0,1-5.464-5.827l0.348-.363a65.513,65.513,0,0,1,5.116-5.1,28.376,28.376,0,0,0-.378,5.827,26.481,26.481,0,0,0,.378,5.461h0ZM901.928,790.74h0a21.54,21.54,0,0,1-1.455-7.642,6.731,6.731,0,0,1,1.455-4.738,6.494,6.494,0,0,1,3.645-2.541,15.431,15.431,0,0,1,6.191-1.09,39.885,39.885,0,0,1,8.4,1.09,20.538,20.538,0,0,0-1.452,5.1,58.769,58.769,0,0,0-2.194,11.654c-2.922,2.9-5.827,5.464-8.02,8.006-0.378-.348-0.741-0.726-1.107-1.089q-3.291-4.906-5.461-8.75h0Zm21.519-14.2h0c1.453,0.711,3.283,1.089,5.116,1.815,1.815,0.726,3.268,1.467,5.449,2.559a46.225,46.225,0,0,0-9.112,5.464c-1.453,1.09-3.283,2.179-4.738,3.268a68.566,68.566,0,0,1,3.285-13.106h0Zm1.453-4.012h0c1.83-3.645,3.663-6.916,5.841-9.109q1.635-1.089,3.271-2.182a10.446,10.446,0,0,1,3.3-.726,8.549,8.549,0,0,1,3.285.726c2.178,0.726,4.009,2.545,5.842,5.1a68.624,68.624,0,0,1,4.009,7.294c-1.831.715-3.661,1.092-5.116,1.818a68.189,68.189,0,0,0-7.672,3.268,43.591,43.591,0,0,0-8.021-3.268,27.319,27.319,0,0,0-5.1-1.818,1.377,1.377,0,0,0,.364-1.1h0Zm28.09,9.113h0a64.559,64.559,0,0,1,1.467,8,45.8,45.8,0,0,0-4.389-3.268,56.336,56.336,0,0,0-8.747-5.464,15.377,15.377,0,0,1,5.116-2.2,41.233,41.233,0,0,1,5.086-1.815c0.378,1.452,1.1,2.919,1.467,4.738h0Zm2.542,21.855h0a73.315,73.315,0,0,1-.349,8.747c-2.193,1.815-4.389,3.634-6.931,5.464a87.132,87.132,0,0,1-10.942,6.553,62.876,62.876,0,0,1-10.58-6.553c-2.557-1.83-4.75-3.649-6.946-5.464a73.525,73.525,0,0,1-.348-8.747,76.756,76.756,0,0,1,.348-9.112c2.2-1.816,4.389-3.271,6.946-5.1a87.141,87.141,0,0,1,10.928-6.553,118.966,118.966,0,0,1,10.594,6.553c2.542,1.83,4.738,3.285,6.931,5.1a79.515,79.515,0,0,1,.349,9.112h0Zm3.3-5.827h0c1.815,2.179,4.009,3.994,5.464,5.827l-0.366.741a63,63,0,0,1-5.1,4.72V797.674h0Zm4.372-22.6h0a26.062,26.062,0,0,1,6.19.741,8.01,8.01,0,0,1,4.011,2.9,8.9,8.9,0,0,1,1.1,4.738,18.234,18.234,0,0,1-1.452,7.279,48.059,48.059,0,0,1-6.568,10.2l-0.363-.363a77.888,77.888,0,0,0-7.657-7.642,71.668,71.668,0,0,0-3.664-16.77,39.05,39.05,0,0,1,8.4-1.089h0Zm5.464,28.423h0a8.514,8.514,0,0,0,1.833-1.833,89.243,89.243,0,0,0,5.476-9.457,19.672,19.672,0,0,0,2.2-8.75,12.115,12.115,0,0,0-2.2-6.916A11.375,11.375,0,0,0,970.5,772.9a16.414,16.414,0,0,0-7.3-1.452,46.4,46.4,0,0,0-9.488,1.452,5.321,5.321,0,0,0-.726-1.452c-1.818-4.375-4.012-8.02-6.553-10.2a15.306,15.306,0,0,0-4.39-2.919,10.113,10.113,0,0,0-4.737-1.089,12.566,12.566,0,0,0-4.738,1.089c-2.572,1.1-4.75,3.282-6.946,5.827-1.453,2.556-2.9,5.479-4.372,8.383a44.7,44.7,0,0,0-9.49-1.089,23.465,23.465,0,0,0-7.28,1.089,14.672,14.672,0,0,0-5.479,3.634c-1.452,1.83-1.83,4.389-1.83,6.931a19,19,0,0,0,1.83,8.749,47.722,47.722,0,0,0,6.931,11.288c-0.363.73-1.089,1.456-1.452,2.2a44,44,0,0,0-5.842,9.457,25.051,25.051,0,0,0-1.815,8.387,14.019,14.019,0,0,0,1.815,6.916,11.86,11.86,0,0,0,5.464,4.012,24,24,0,0,0,7.658,1.089,46.38,46.38,0,0,0,9.49-1.089,2.752,2.752,0,0,0,.726,1.452,34.482,34.482,0,0,0,6.583,10.2,25.4,25.4,0,0,0,4.009,2.919,12.566,12.566,0,0,0,4.738,1.089,10.113,10.113,0,0,0,4.737-1.089,15.884,15.884,0,0,0,6.931-6.205,42.3,42.3,0,0,0,4.738-8,44.792,44.792,0,0,0,9.488,1.089,23.648,23.648,0,0,0,7.3-1.089,9.406,9.406,0,0,0,5.1-4.012,11.126,11.126,0,0,0,2.2-6.916,28.907,28.907,0,0,0-1.818-8.75,58.657,58.657,0,0,0-7.309-11.288h0Z" transform="translate(-896.812 -757.219)"/>
</svg>
